<svg xmlns="http://www.w3.org/2000/svg" width="22.859" height="34.549" viewBox="0 0 22.859 34.549">
  <g id="bin_3" transform="translate(0.258 0.287)">
    <g id="Groupe_11" data-name="Groupe 11">
      <path id="Tracé_76" data-name="Tracé 76" d="M3521.607,2122.968h-.07c-.749,0-1.067-.883-1.17-1.264a2.366,2.366,0,0,1,.291-2.054,3.126,3.126,0,0,1,1.91-1.3l15.842-3.852a3.276,3.276,0,0,1,3.921,1.885l.235.716a.643.643,0,0,1-.079.563.849.849,0,0,1-.515.353Zm17.667-7.71a2.493,2.493,0,0,0-.592.071l-15.843,3.852a2.131,2.131,0,0,0-1.308.888,1.628,1.628,0,0,0-.194,1.423,1.974,1.974,0,0,0,.26.586l19.97-4.856-.2-.6a2.159,2.159,0,0,0-2.094-1.363Z" transform="translate(-3520.25 -2113.739)" fill="#fff" stroke="#fff" stroke-width="0.5"/>
      <path id="Tracé_77" data-name="Tracé 77" d="M3544.749,2113.458l-.183-.649a1.425,1.425,0,0,1,.982-1.757l2.569-.727a1.424,1.424,0,0,1,1.756.983l.184.648-.615.174-.183-.647a.784.784,0,0,0-.969-.542l-2.568.727a.784.784,0,0,0-.542.967l.184.648Z" transform="translate(-3537.061 -2110.271)" fill="#fff" stroke="#fff" stroke-width="0.5"/>
      <path id="Tracé_78" data-name="Tracé 78" d="M3546.862,2188.563H3533.7a3.525,3.525,0,0,1-3.419-3.616V2166.58a1.345,1.345,0,0,1,1.3-1.379h17.391a1.345,1.345,0,0,1,1.3,1.379v18.367a3.526,3.526,0,0,1-3.419,3.616Zm-15.278-22.245a.255.255,0,0,0-.247.262v18.367a2.437,2.437,0,0,0,2.361,2.5h13.164a2.438,2.438,0,0,0,2.365-2.5V2166.58a.255.255,0,0,0-.249-.262h-17.391Z" transform="translate(-3529.105 -2154.55)" fill="#fff" stroke="#fff" stroke-width="0.5"/>
    </g>
    <path id="Tracé_79" data-name="Tracé 79" d="M3549.589,2197.36c-.175,0-.319-.23-.319-.51v-9.98c0-.28.144-.51.319-.51s.32.23.32.51v9.98C3549.909,2197.13,3549.765,2197.36,3549.589,2197.36Z" transform="translate(-3542.817 -2169.328)" fill="#fff" stroke="#fff" stroke-width="0.5"/>
    <path id="Tracé_80" data-name="Tracé 80" d="M3566.169,2197.36c-.175,0-.319-.23-.319-.51v-9.98c0-.28.144-.51.319-.51s.32.23.32.51v9.98C3566.489,2197.13,3566.345,2197.36,3566.169,2197.36Z" transform="translate(-3554.654 -2169.328)" fill="#fff" stroke="#fff" stroke-width="0.5"/>
    <path id="Tracé_81" data-name="Tracé 81" d="M3582.619,2197.36c-.175,0-.319-.23-.319-.51v-9.98c0-.28.144-.51.319-.51s.32.23.32.51v9.98C3582.939,2197.13,3582.794,2197.36,3582.619,2197.36Z" transform="translate(-3566.4 -2169.328)" fill="#fff" stroke="#fff" stroke-width="0.5"/>
  </g>
</svg>
