<svg id="Bug" xmlns="http://www.w3.org/2000/svg" width="95" height="64" viewBox="0 0 95 64">
  <circle id="Ellipse_1" data-name="Ellipse 1" cx="15" cy="15" r="15" transform="translate(32 34)" fill="#262626"/>
  <g id="bug-2" data-name="bug" transform="translate(-3444.414 -1710.277)">
    <path id="Tracé_117" data-name="Tracé 117" d="M3498.537,1771.977c-3.687,0-6.687-3.652-6.687-8.138s3-8.139,6.687-8.139,6.686,3.652,6.686,8.139S3502.224,1771.977,3498.537,1771.977Zm0-15.737c-3.391,0-6.146,3.409-6.146,7.6s2.758,7.6,6.146,7.6,6.146-3.409,6.146-7.6S3501.924,1756.24,3498.537,1756.24Z" transform="translate(-7.125 -3.849)" fill="#727272" stroke="#727272" stroke-width="1"/>
    <path id="Tracé_118" data-name="Tracé 118" d="M3502.49,1769.413a10.179,10.179,0,0,1-5.38-1.6l.316-.44a9.078,9.078,0,0,0,9.909-.005l.3.45A9.191,9.191,0,0,1,3502.49,1769.413Z" transform="translate(-10.966 -12.369)" fill="#727272" stroke="#727272" stroke-width="1"/>
    <path id="Tracé_119" data-name="Tracé 119" d="M3501.708,1752.936a.277.277,0,0,1-.191-.078l-1.971-1.971a.269.269,0,0,1,.381-.381l1.97,1.971a.268.268,0,0,1,0,.381.266.266,0,0,1-.192.078Z" transform="translate(-12.687 0)" fill="#727272" stroke="#727272" stroke-width="1"/>
    <path id="Tracé_120" data-name="Tracé 120" d="M3525.289,1752.936a.279.279,0,0,1-.192-.078.269.269,0,0,1,0-.381l1.971-1.971a.269.269,0,0,1,.38.381l-1.97,1.971a.266.266,0,0,1-.192.078Z" transform="translate(-31.34 0)" fill="#727272" stroke="#727272" stroke-width="1"/>
    <path id="Tracé_121" data-name="Tracé 121" d="M3487.415,1772.636a.281.281,0,0,1-.143-.041l-2.176-1.347a.27.27,0,0,1,.286-.459l2.176,1.347a.27.27,0,0,1,.086.372A.267.267,0,0,1,3487.415,1772.636Z" transform="translate(-2.102 -14.836)" fill="#727272" stroke="#727272" stroke-width="1"/>
    <path id="Tracé_122" data-name="Tracé 122" d="M3484.851,1791.1h-2.491a.27.27,0,0,1,0-.54h2.491a.27.27,0,0,1,0,.54Z" transform="translate(0 -29.299)" fill="#727272" stroke="#727272" stroke-width="1"/>
    <path id="Tracé_123" data-name="Tracé 123" d="M3538.52,1772.636a.27.27,0,0,1-.143-.5l2.176-1.347a.27.27,0,1,1,.286.459l-2.176,1.347A.275.275,0,0,1,3538.52,1772.636Z" transform="translate(-41 -14.836)" fill="#727272" stroke="#727272" stroke-width="1"/>
    <path id="Tracé_124" data-name="Tracé 124" d="M3537.693,1805.665a.262.262,0,0,1-.173-.065l-2.04-1.719a.27.27,0,0,1,.348-.413l2.041,1.719a.27.27,0,0,1,.033.381A.278.278,0,0,1,3537.693,1805.665Z" transform="translate(-38.908 -38.676)" fill="#727272" stroke="#727272" stroke-width="1"/>
    <path id="Tracé_125" data-name="Tracé 125" d="M3542.7,1791.1h-2.491a.27.27,0,1,1,0-.54h2.491a.27.27,0,1,1,0,.54Z" transform="translate(-42.234 -29.299)" fill="#727272" stroke="#727272" stroke-width="1"/>
    <path id="Tracé_126" data-name="Tracé 126" d="M3489.266,1805.445a.271.271,0,0,1-.175-.478l2.04-1.72a.27.27,0,1,1,.349.413l-2.041,1.72A.268.268,0,0,1,3489.266,1805.445Z" transform="translate(-5.04 -38.516)" fill="#727272" stroke="#727272" stroke-width="1"/>
    <rect id="Rectangle_2134" data-name="Rectangle 2134" width="0.81" height="11.073" transform="translate(3491.006 1756.782)" fill="#727272" stroke="#727272" stroke-width="1"/>
  </g>
</svg>
