<svg xmlns="http://www.w3.org/2000/svg" width="22.062" height="30.703" viewBox="0 0 22.062 30.703">
  <g id="double_fenetre" data-name="double fenetre" transform="translate(0.4)">
    <g id="fenetres" transform="translate(0 9)">
      <path id="Tracé_113" data-name="Tracé 113" d="M3547.441,1949.985h-9.6a3.461,3.461,0,0,1-3.458-3.458v-9.6a3.461,3.461,0,0,1,3.458-3.458h9.6a3.461,3.461,0,0,1,3.458,3.458v9.6A3.461,3.461,0,0,1,3547.441,1949.985Zm-9.6-15.695a2.641,2.641,0,0,0-2.637,2.637v9.6a2.641,2.641,0,0,0,2.637,2.638h9.6a2.641,2.641,0,0,0,2.638-2.638v-9.6a2.641,2.641,0,0,0-2.638-2.637Z" transform="translate(-3534.38 -1928.682)" fill="#fff" stroke="#fff" stroke-width="0.8"/>
      <path id="Tracé_114" data-name="Tracé 114" d="M3559,1938.315a.41.41,0,0,1,0-.82,2.641,2.641,0,0,0,2.637-2.638v-9.6a2.637,2.637,0,0,0-2.637-2.634h-9.6a2.64,2.64,0,0,0-2.638,2.634.41.41,0,1,1-.82,0,3.458,3.458,0,0,1,3.458-3.454h9.6a3.461,3.461,0,0,1,3.458,3.454v9.6A3.461,3.461,0,0,1,3559,1938.315Z" transform="translate(-3541.198 -1921.8)" fill="#fff" stroke="#fff" stroke-width="0.8"/>
    </g>
  </g>
</svg>
