<svg xmlns="http://www.w3.org/2000/svg" width="29.318" height="27.928" viewBox="0 0 29.318 27.928">
  <path id="coeur" d="M3370.4,2082.031c-.734-.851-7.545-8.726-8.757-10.089-2.973-3.428-4.925-5.311-4-10.121a8.027,8.027,0,0,1,2.722-4.266,7.3,7.3,0,0,1,5.563-1.253,6.331,6.331,0,0,1,4.7,3.844c.113.228.364.857.418.734,1.731-3.8,4.423-4.824,6.925-4.733a5.855,5.855,0,0,1,2.34.584,9.348,9.348,0,0,1,1.892,1.312,8.4,8.4,0,0,1,2.436,7.057c-.322,2.473-1.5,3.869-4.554,6.973-7.182,7.316-9.653,10-9.689,9.958Z" transform="translate(-3356.423 -2055.14)" fill="none" stroke="#fff" stroke-linecap="round" stroke-linejoin="round" stroke-width="2"/>
</svg>
