<svg id="picto_meta_world" xmlns="http://www.w3.org/2000/svg" width="198.077" height="198.077" viewBox="0 0 198.077 198.077">
  <g id="metaverse-person-12407" opacity="0.2">
    <path id="Tracé_36" data-name="Tracé 36" d="M122.4,77.187a8.35,8.35,0,0,1-2.841-.5,16.978,16.978,0,0,1-11.119-14.51l-.46-7.6a2.2,2.2,0,1,1,4.4-.266l.458,7.553a12.547,12.547,0,0,0,8.225,10.687,3.95,3.95,0,0,0,1.345.236,2.2,2.2,0,1,1,0,4.4Z" transform="translate(-23.407 -11.324)" fill="#727272"/>
    <path id="Tracé_37" data-name="Tracé 37" d="M140.809,64.2c-.046,0-.095,0-.143,0a2.2,2.2,0,0,1-2.056-2.337L139.1,54.3a2.163,2.163,0,0,1,2.34-2.056,2.2,2.2,0,0,1,2.056,2.337l-.486,7.553A2.2,2.2,0,0,1,140.809,64.2Z" transform="translate(-30.047 -11.324)" fill="#727272"/>
    <path id="Tracé_38" data-name="Tracé 38" d="M111.662,84.887a2.2,2.2,0,0,1-.363-4.371,2.559,2.559,0,0,0,2.282-2.381l.04-1.651a2.2,2.2,0,0,1,4.4.108l-.04,1.6a6.926,6.926,0,0,1-5.953,6.669A2.274,2.274,0,0,1,111.662,84.887Z" transform="translate(-23.729 -16.114)" fill="#727272"/>
    <path id="Tracé_39" data-name="Tracé 39" d="M133.869,50.87a2.223,2.223,0,0,1-.7-.114,2.2,2.2,0,0,1-1.494-2.214,20.268,20.268,0,0,0,.035-2.1,19.258,19.258,0,0,1-9.633-1.043c-1.668-.7-6.556-2.747-8.685-1.422-1.294.808-1.692,3.07-1.8,4.824a2.2,2.2,0,0,1-4.043,1.07c-2.969-4.569-3.909-9.083-2.648-12.708a9.1,9.1,0,0,1,5.225-5.436c4.82-6.919,14.321-7.274,21.78-4.468a2.2,2.2,0,0,1,.332,3.962c3.31,1.871,5.41,4.19,6.259,6.924,1.067,3.44.128,7.4-2.8,11.755A2.206,2.206,0,0,1,133.869,50.87ZM132.7,41.882a3.045,3.045,0,0,1,1.677.5,5.858,5.858,0,0,0-.084-2.938c-.689-2.223-3.042-4.14-6.988-5.7a2.2,2.2,0,0,1-1.329-2.562,3.557,3.557,0,0,1,.357-.9c-5.025-.856-10.254.147-12.89,4.4a2.2,2.2,0,0,1-1.169.927,4.854,4.854,0,0,0-3.215,2.991,6.882,6.882,0,0,0-.1,3.682,6.882,6.882,0,0,1,2.1-2.049c3.59-2.243,8.647-.605,12.651,1.07a15.634,15.634,0,0,0,8.416.627A3.407,3.407,0,0,1,132.7,41.882Zm-2.551-9.415Z" transform="translate(-22.622 -5.552)" fill="#727272"/>
    <path id="Tracé_40" data-name="Tracé 40" d="M128.46,78.913a2.2,2.2,0,0,1-.746-4.272A12.562,12.562,0,0,0,135.941,63.9a2.2,2.2,0,1,1,4.384.368,16.969,16.969,0,0,1-11.117,14.51A2.182,2.182,0,0,1,128.46,78.913Z" transform="translate(-27.37 -13.415)" fill="#727272"/>
    <path id="Tracé_41" data-name="Tracé 41" d="M125.785,82.773a2.2,2.2,0,1,1,0-4.4,3.971,3.971,0,0,0,1.347-.236,2.2,2.2,0,0,1,1.49,4.142A8.357,8.357,0,0,1,125.785,82.773Z" transform="translate(-26.79 -16.91)" fill="#727272"/>
    <path id="Tracé_42" data-name="Tracé 42" d="M140.558,130.948H125.813a2.2,2.2,0,0,1,0-4.4h12.7l2.056-28.387a2.2,2.2,0,0,1,2.194-2.042h12.688l27.647-16.339a2,2,0,0,0-1.8-3.568l-25.1,10.665a2.221,2.221,0,0,1-1.186.15l-18.294-2.747a6.95,6.95,0,0,1-5.993-6.728l-.037-1.545a2.2,2.2,0,0,1,2.152-2.249h.048a2.2,2.2,0,0,1,2.2,2.15l.037,1.6a2.572,2.572,0,0,0,2.282,2.432l17.64,2.648,24.526-10.421a6.4,6.4,0,0,1,5.766,11.407l-28.164,16.645a2.2,2.2,0,0,1-1.12.306h-11.24l-2.056,28.387A2.205,2.205,0,0,1,140.558,130.948Z" transform="translate(-26.796 -15.533)" fill="#727272"/>
    <path id="Tracé_43" data-name="Tracé 43" d="M109.066,130.938H94.32a2.2,2.2,0,0,1-2.2-2.042l-2.051-28.387H78.833a2.209,2.209,0,0,1-1.12-.306l-28.1-16.608a6.445,6.445,0,0,1,5.8-11.473L80,82.572l17.677-2.654a2.193,2.193,0,0,1,2.177.984c3.237,5.029,6.347,7.584,9.248,7.593h.015c2.91,0,6.055-2.56,9.351-7.606a2.2,2.2,0,1,1,3.684,2.406c-4.217,6.46-8.482,9.6-13.033,9.6h-.033c-4.259-.013-8.24-2.771-12.14-8.418L80.041,87.013a2.2,2.2,0,0,1-1.188-.15L53.688,76.171a2.043,2.043,0,0,0-1.838,3.634l27.581,16.3H92.117a2.2,2.2,0,0,1,2.2,2.042l2.053,28.387h12.7a2.2,2.2,0,0,1,0,4.4Z" transform="translate(-10.072 -15.522)" fill="#727272"/>
    <path id="Tracé_44" data-name="Tracé 44" d="M114.85,208.751a9.063,9.063,0,0,1-9.039-8.533l-1.054-56.236a2.2,2.2,0,0,1,2.2-2.243H121.7a2.2,2.2,0,0,1,2.2,2.2v55.754A9.065,9.065,0,0,1,114.85,208.751Zm-5.65-62.61,1.008,53.908a4.654,4.654,0,0,0,9.294-.354V146.141Z" transform="translate(-22.709 -30.726)" fill="#727272"/>
    <path id="Tracé_45" data-name="Tracé 45" d="M132.666,208.751a9.064,9.064,0,0,1-9.054-9.054V143.94a2.2,2.2,0,0,1,2.2-2.2h14.746a2.2,2.2,0,0,1,2.2,2.243l-1.05,56.15A9.081,9.081,0,0,1,132.666,208.751Zm-4.65-62.61v53.553a4.653,4.653,0,0,0,9.3.268l1-53.822Z" transform="translate(-26.796 -30.726)" fill="#727272"/>
    <path id="Tracé_46" data-name="Tracé 46" d="M134.509,60.515H110.414a2.2,2.2,0,1,1,0-4.4h24.095a2.2,2.2,0,1,1,0,4.4Z" transform="translate(-23.458 -12.164)" fill="#727272"/>
    <path id="Tracé_47" data-name="Tracé 47" d="M96.336,103.3a2.2,2.2,0,0,1-2.2-2.2V86.689a2.2,2.2,0,0,1,4.4,0V101.1A2.2,2.2,0,0,1,96.336,103.3Z" transform="translate(-20.406 -18.315)" fill="#727272"/>
    <path id="Tracé_48" data-name="Tracé 48" d="M155.346,103.3a2.2,2.2,0,0,1-2.2-2.2V86.669a2.2,2.2,0,0,1,4.4,0V101.1A2.2,2.2,0,0,1,155.346,103.3Z" transform="translate(-33.198 -18.311)" fill="#727272"/>
    <path id="Tracé_49" data-name="Tracé 49" d="M207.707,225.088a11.561,11.561,0,1,1,11.561-11.561A11.574,11.574,0,0,1,207.707,225.088Zm0-18.72a7.159,7.159,0,1,0,7.159,7.159A7.167,7.167,0,0,0,207.707,206.368Z" transform="translate(-42.52 -43.782)" fill="#727272"/>
    <path id="Tracé_50" data-name="Tracé 50" d="M195.757,140.96A11.56,11.56,0,1,1,207.318,129.4,11.574,11.574,0,0,1,195.757,140.96Zm0-18.718a7.158,7.158,0,1,0,7.159,7.157A7.166,7.166,0,0,0,195.757,122.242Z" transform="translate(-39.929 -25.545)" fill="#727272"/>
    <path id="Tracé_51" data-name="Tracé 51" d="M16.012,73.056A11.561,11.561,0,1,1,27.573,61.495,11.574,11.574,0,0,1,16.012,73.056Zm0-18.718A7.159,7.159,0,1,0,23.172,61.5,7.168,7.168,0,0,0,16.012,54.338Z" transform="translate(-0.965 -10.824)" fill="#727272"/>
    <path id="Tracé_52" data-name="Tracé 52" d="M177.067,24.825a11.561,11.561,0,1,1,11.561-11.561A11.574,11.574,0,0,1,177.067,24.825Zm0-18.72a7.159,7.159,0,1,0,7.159,7.159A7.167,7.167,0,0,0,177.067,6.1Z" transform="translate(-35.878 -0.369)" fill="#727272"/>
    <path id="Tracé_53" data-name="Tracé 53" d="M19.213,201.186a11.561,11.561,0,1,1,11.561-11.561A11.574,11.574,0,0,1,19.213,201.186Zm0-18.721a7.159,7.159,0,1,0,7.159,7.159A7.168,7.168,0,0,0,19.213,182.466Z" transform="translate(-1.659 -38.6)" fill="#727272"/>
    <path id="Tracé_54" data-name="Tracé 54" d="M12.739,160.937a2.2,2.2,0,0,1-1.963-1.2,99.266,99.266,0,0,1-1.948-85.9,2.2,2.2,0,0,1,4.008,1.82A94.854,94.854,0,0,0,14.7,157.734a2.2,2.2,0,0,1-1.959,3.2Z" transform="translate(0 -15.726)" fill="#727272"/>
    <path id="Tracé_55" data-name="Tracé 55" d="M104.743,241.411a98.516,98.516,0,0,1-77.959-37.949,2.2,2.2,0,1,1,3.462-2.716A94.657,94.657,0,0,0,162.427,217.4a2.2,2.2,0,1,1,2.685,3.486A98.118,98.118,0,0,1,104.743,241.411Z" transform="translate(-5.704 -43.334)" fill="#727272"/>
    <path id="Tracé_56" data-name="Tracé 56" d="M212.566,169.214a2.2,2.2,0,0,1-1.651-3.656A94.655,94.655,0,0,0,189.5,22.406a2.2,2.2,0,1,1,2.313-3.746,99.055,99.055,0,0,1,22.4,149.808A2.193,2.193,0,0,1,212.566,169.214Z" transform="translate(-40.853 -3.973)" fill="#727272"/>
    <path id="Tracé_57" data-name="Tracé 57" d="M25.139,45.038a2.2,2.2,0,0,1-1.789-3.48A99.161,99.161,0,0,1,138.761,6.268a2.2,2.2,0,1,1-1.543,4.122A94.76,94.76,0,0,0,26.933,44.116,2.2,2.2,0,0,1,25.139,45.038Z" transform="translate(-4.973)" fill="#727272"/>
    <path id="Tracé_58" data-name="Tracé 58" d="M18.605,166.953a2.2,2.2,0,0,1-2.2-2.17c-.211-16.011,14.369-38.178,39-59.3a2.2,2.2,0,0,1,2.866,3.341c-23.3,19.979-37.657,41.4-37.463,55.9a2.2,2.2,0,0,1-2.172,2.232Z" transform="translate(-3.556 -22.751)" fill="#727272"/>
    <path id="Tracé_59" data-name="Tracé 59" d="M47.5,193.266c-7.243,0-13.445-1.261-18.232-3.889a2.2,2.2,0,1,1,2.117-3.858c17.1,9.384,56.582-1.393,93.884-25.616a223.852,223.852,0,0,0,28.206-21.573,2.2,2.2,0,1,1,2.954,3.262,228.339,228.339,0,0,1-28.761,22C98.482,182.546,68.594,193.266,47.5,193.266Z" transform="translate(-6.097 -29.863)" fill="#727272"/>
    <path id="Tracé_60" data-name="Tracé 60" d="M195.854,108.687a2.2,2.2,0,0,1-1.642-3.667c17.807-19.94,24.535-37.853,18-47.919-6.675-10.278-27.128-11.161-53.369-2.3a2.2,2.2,0,1,1-1.411-4.168c28.671-9.684,50.525-8.161,58.47,4.074,7.683,11.832.8,31.739-18.406,53.248A2.207,2.207,0,0,1,195.854,108.687Z" transform="translate(-33.803 -9.607)" fill="#727272"/>
  </g>
</svg>
