<svg xmlns="http://www.w3.org/2000/svg" width="106.082" height="93.511" viewBox="0 0 106.082 93.511">
  <g id="settings" transform="translate(1.5 -24.703)">
    <path id="Tracé_61" data-name="Tracé 61" d="M68.46,79.617,71.089,68.7c.008-.034.017-.068.026-.1a7.574,7.574,0,0,1,5.343-5.343l7.976-2.137a7.115,7.115,0,0,0-5.462-2.555H76.619a35.059,35.059,0,0,0-2.276-5.491l1.665-1.664a7.138,7.138,0,0,0,0-10.082L70.976,36.3a7.129,7.129,0,0,0-10.083,0L59.228,37.96a35.152,35.152,0,0,0-5.49-2.276V33.332A7.137,7.137,0,0,0,46.609,26.2H39.492a7.137,7.137,0,0,0-7.129,7.129v2.352a35.122,35.122,0,0,0-5.491,2.276L25.207,36.3a7.129,7.129,0,0,0-10.083,0l-5.032,5.032a7.138,7.138,0,0,0,0,10.082l1.664,1.664a35.07,35.07,0,0,0-2.276,5.491H7.129A7.137,7.137,0,0,0,0,65.695v7.117a7.137,7.137,0,0,0,7.129,7.129H9.482a35.079,35.079,0,0,0,2.276,5.491L10.093,87.1a7.138,7.138,0,0,0,0,10.083l5.032,5.032a7.129,7.129,0,0,0,10.082,0l1.665-1.664a35.063,35.063,0,0,0,5.491,2.275v2.353a7.137,7.137,0,0,0,7.129,7.129h6.173a11.276,11.276,0,0,1,2.424-12.314ZM43.05,88.386A19.133,19.133,0,1,1,62.184,69.253,19.155,19.155,0,0,1,43.05,88.386Z" fill="none" stroke="#fff" stroke-width="3"/>
    <path id="Tracé_62" data-name="Tracé 62" d="M259.11,189.774l-.076-.077a1.228,1.228,0,0,0-.847-.351,1.194,1.194,0,0,0-.846.35l-5.165,5.165a4.187,4.187,0,0,1-5.921-5.921l5.165-5.165a1.2,1.2,0,0,0,0-1.692l-.075-.075a4.564,4.564,0,0,0-4.409-1.182l-10.607,2.843A4.577,4.577,0,0,0,233.1,186.9l-.007.029-2.826,11.734L209.3,219.627a8.266,8.266,0,0,0,0,11.69l.5.5a8.213,8.213,0,0,0,5.846,2.422h0a8.212,8.212,0,0,0,5.845-2.421l20.967-20.967,11.734-2.826.029-.007a4.578,4.578,0,0,0,3.228-3.228l2.842-10.608A4.578,4.578,0,0,0,259.11,189.774Zm-40.182,35.8a2.391,2.391,0,1,1,.7-1.691A2.375,2.375,0,0,1,218.928,225.571Zm14.1-14.941-9.9,9.9a1.794,1.794,0,1,1-2.537-2.537l9.9-9.9a1.794,1.794,0,1,1,2.537,2.537Z" transform="translate(-157.399 -117.524)" fill="none" stroke="#fff" stroke-width="3"/>
  </g>
</svg>
