<svg xmlns="http://www.w3.org/2000/svg" width="39.909" height="35.224" viewBox="0 0 39.909 35.224">
  <g id="settings" transform="translate(0.75 -25.453)">
    <path id="Tracé_61" data-name="Tracé 61" d="M25.508,46.105l.98-4.067L26.5,42a2.822,2.822,0,0,1,1.991-1.991l2.972-.8a2.651,2.651,0,0,0-2.035-.952h-.877a13.063,13.063,0,0,0-.848-2.046l.62-.62a2.659,2.659,0,0,0,0-3.757l-1.875-1.875a2.656,2.656,0,0,0-3.757,0l-.62.62a13.1,13.1,0,0,0-2.046-.848v-.876A2.659,2.659,0,0,0,17.366,26.2H14.715a2.659,2.659,0,0,0-2.656,2.656v.877a13.086,13.086,0,0,0-2.046.848l-.62-.62a2.656,2.656,0,0,0-3.757,0L3.761,31.839a2.659,2.659,0,0,0,0,3.757l.62.62a13.067,13.067,0,0,0-.848,2.046H2.656A2.659,2.659,0,0,0,0,40.918v2.652a2.659,2.659,0,0,0,2.656,2.656h.877a13.07,13.07,0,0,0,.848,2.046l-.62.62a2.66,2.66,0,0,0,0,3.757l1.875,1.875a2.656,2.656,0,0,0,3.757,0l.62-.62a13.065,13.065,0,0,0,2.046.848v.877a2.659,2.659,0,0,0,2.656,2.656h2.3a4.2,4.2,0,0,1,.9-4.588Zm-9.468,3.267a7.129,7.129,0,1,1,7.129-7.129A7.137,7.137,0,0,1,16.041,49.372Z" transform="translate(0 0)" fill="none" stroke="#fff" stroke-width="1.5"/>
    <path id="Tracé_62" data-name="Tracé 62" d="M226.34,184.063l-.028-.029A.458.458,0,0,0,226,183.9a.445.445,0,0,0-.315.131l-1.924,1.925a1.56,1.56,0,0,1-2.206-2.206l1.924-1.924a.446.446,0,0,0,0-.631l-.028-.028a1.7,1.7,0,0,0-1.643-.44l-3.952,1.059a1.705,1.705,0,0,0-1.2,1.2l0,.011-1.053,4.372-7.812,7.812a3.08,3.08,0,0,0,0,4.356l.186.186a3.06,3.06,0,0,0,2.178.9h0a3.06,3.06,0,0,0,2.178-.9l7.812-7.812,4.372-1.053.011,0a1.706,1.706,0,0,0,1.2-1.2l1.059-3.952A1.706,1.706,0,0,0,226.34,184.063ZM211.368,197.4a.891.891,0,1,1,.261-.63A.885.885,0,0,1,211.368,197.4Zm5.252-5.567-3.687,3.687a.668.668,0,1,1-.945-.945l3.687-3.687a.668.668,0,1,1,.945.945Z" transform="translate(-188.442 -140.703)" fill="none" stroke="#fff" stroke-width="1.5"/>
  </g>
</svg>
