<svg xmlns="http://www.w3.org/2000/svg" width="151.607" height="151.615" viewBox="0 0 151.607 151.615">
  <g id="spawn" transform="translate(-3788.98 -1980.25)">
    <path id="Tracé_141" data-name="Tracé 141" d="M3911.951,2068.5c-3.46,8.883-13.333,28.353-37.479,50.735,0,0-39.639-34.817-40.529-66.516s28.421-40.179,28.421-40.179,23.067-7.59,41.069,10.115c14.23,13.994,12.191,31.433,10.716,38.125" transform="translate(-10.164 -6.747)" fill="none" stroke="#fff" stroke-width="4"/>
    <circle id="Ellipse_56" data-name="Ellipse 56" cx="16.929" cy="16.929" r="16.929" transform="translate(3847.379 2027.401)" fill="none" stroke="#fff" stroke-width="4"/>
    <path id="Tracé_142" data-name="Tracé 142" d="M3809.12,2013.765a73.415,73.415,0,0,1,85.164-26.542" transform="translate(-4.225 0)" fill="none" stroke="#fff" stroke-width="5"/>
    <path id="Tracé_143" data-name="Tracé 143" d="M3799.587,2103.072a73.505,73.505,0,0,1-1.483-64.052" transform="translate(0 -13.475)" fill="none" stroke="#fff" stroke-width="5"/>
    <path id="Tracé_144" data-name="Tracé 144" d="M3914.465,2151.334A73.317,73.317,0,0,1,3811.8,2138.36" transform="translate(-4.867 -37.264)" fill="none" stroke="#fff" stroke-width="5"/>
    <path id="Tracé_145" data-name="Tracé 145" d="M3939.1,1997.47a73.323,73.323,0,0,1,15.773,110.862" transform="translate(-35.351 -3.525)" fill="none" stroke="#fff" stroke-width="5"/>
    <circle id="Ellipse_57" data-name="Ellipse 57" cx="6.845" cy="6.845" r="6.845" transform="translate(3890.06 1983.503)" fill="none" stroke="#fff" stroke-width="4"/>
    <circle id="Ellipse_58" data-name="Ellipse 58" cx="6.845" cy="6.845" r="6.845" transform="translate(3794.035 2012.456)" fill="none" stroke="#fff" stroke-width="4"/>
    <circle id="Ellipse_59" data-name="Ellipse 59" cx="6.845" cy="6.845" r="6.845" transform="translate(3795.967 2088.791)" fill="none" stroke="#fff" stroke-width="4"/>
    <circle id="Ellipse_60" data-name="Ellipse 60" cx="6.845" cy="6.845" r="6.845" transform="translate(3908.313 2103.241)" fill="none" stroke="#fff" stroke-width="4"/>
    <circle id="Ellipse_61" data-name="Ellipse 61" cx="6.845" cy="6.845" r="6.845" transform="translate(3901.468 2052.856)" fill="none" stroke="#fff" stroke-width="4"/>
    <path id="Tracé_146" data-name="Tracé 146" d="M3803.82,2112.634s-1.992-11.2,16.519-31.494" transform="translate(-2.94 -23.561)" fill="none" stroke="#fff" stroke-linecap="round" stroke-width="4"/>
    <path id="Tracé_147" data-name="Tracé 147" d="M3812.84,2126.784s32.551,15.173,95.584-36.734" transform="translate(-5.115 -25.695)" fill="none" stroke="#fff" stroke-linecap="round" stroke-width="4"/>
    <path id="Tracé_148" data-name="Tracé 148" d="M3950.93,2066.184s16.428-15.416,15.812-34.6" transform="translate(-38.183 -11.694)" fill="none" stroke="#fff" stroke-linecap="round" stroke-width="4"/>
    <path id="Tracé_149" data-name="Tracé 149" d="M3934.96,2017.7c6.883-.943,15.081-.852,22.641,2.365" transform="translate(-34.359 -8.244)" fill="none" stroke="#fff" stroke-linecap="round" stroke-width="4"/>
  </g>
</svg>
