<svg xmlns="http://www.w3.org/2000/svg" width="87.013" height="86.144" viewBox="0 0 87.013 86.144">
  <g id="storage4" transform="translate(-3403.63 -2040.582)">
    <path id="Tracé_98" data-name="Tracé 98" d="M3439.6,2125.583c-9.787,0-20.156-2.03-27.733-7.155a19.545,19.545,0,0,1-7.677-10.249l-.06-.321v-45.3a16.548,16.548,0,0,1,6.913-13.444c13.284-9.425,44.353-12.681,60.048,2.09a15.631,15.631,0,0,1,4.361,10.43V2092.3a1,1,0,0,1-2.01,0v-30.667a13.684,13.684,0,0,0-3.718-8.963c-14.751-13.887-45.056-10.732-57.5-1.909a14.556,14.556,0,0,0-6.069,11.816V2107.7a17.691,17.691,0,0,0,6.853,9.084c11.013,7.416,28.235,8.059,40.414,5.386a1.022,1.022,0,0,1,1.206.763,1.011,1.011,0,0,1-.764,1.206,67.079,67.079,0,0,1-14.228,1.487Z" transform="translate(0 0)" fill="#fff" stroke="#fff" stroke-width="1"/>
    <path id="Tracé_99" data-name="Tracé 99" d="M3439.7,2068.7c-19.9,0-35.47-8.1-35.47-18.428h2.01c0,9.044,15.012,16.419,33.46,16.419s33.46-7.355,33.46-16.419h2.009C3475.169,2060.6,3459.595,2068.7,3439.7,2068.7Z" transform="translate(0.101 9.277)" fill="#fff" stroke="#fff" stroke-width="1"/>
    <path id="Tracé_100" data-name="Tracé 100" d="M3439.781,2076.218c-20,0-35.651-8.1-35.651-18.428h2.01c0,9.044,15.092,16.419,33.641,16.419s33.641-7.355,33.641-16.419h2.01C3475.432,2068.119,3459.777,2076.218,3439.781,2076.218Z" transform="translate(0 16.869)" fill="#fff" stroke="#fff" stroke-width="1"/>
    <path id="Tracé_101" data-name="Tracé 101" d="M3439.781,2084.913c-20,0-35.651-8.1-35.651-18.428a1,1,0,0,1,2.01,0c0,9.044,15.092,16.419,33.641,16.419,8.782,0,17.1-1.668,23.452-4.7a1.011,1.011,0,0,1,.864,1.829c-6.592,3.156-15.233,4.9-24.317,4.9Z" transform="translate(0 24.633)" fill="#fff" stroke="#fff" stroke-width="1"/>
    <path id="Tracé_102" data-name="Tracé 102" d="M3439.7,2090.229a1,1,0,0,1-1-1v-18.569a1,1,0,0,1,2.01,0v18.569A1,1,0,0,1,3439.7,2090.229Z" transform="translate(34.903 28.843)" fill="#fff" stroke="#fff" stroke-width="1"/>
    <path id="Tracé_103" data-name="Tracé 103" d="M3450.892,2079.347a.935.935,0,0,1-.723-.322l-6.712-7.114-6.713,7.114a1.009,1.009,0,1,1-1.467-1.386l7.436-7.878a1.043,1.043,0,0,1,1.467,0l7.435,7.878a1.013,1.013,0,0,1-.04,1.427,1.027,1.027,0,0,1-.683.281Z" transform="translate(31.171 28.652)" fill="#fff" stroke="#fff" stroke-width="1"/>
    <path id="Tracé_104" data-name="Tracé 104" d="M3462.67,2088.679H3431.34v-9.4a1,1,0,0,1,2.01,0v7.4h27.311v-7.4a1,1,0,0,1,2.01,0Z" transform="translate(27.472 37.546)" fill="#fff" stroke="#fff" stroke-width="1"/>
  </g>
</svg>
