<svg xmlns="http://www.w3.org/2000/svg" width="32.262" height="31.946" viewBox="0 0 32.262 31.946">
  <g id="storage4" transform="translate(-3403.63 -2040.582)">
    <path id="Tracé_98" data-name="Tracé 98" d="M3417.022,2071.794c-3.558,0-7.326-.738-10.08-2.6a7.1,7.1,0,0,1-2.791-3.725l-.022-.116v-16.464a6.016,6.016,0,0,1,2.513-4.886c4.829-3.426,16.121-4.609,21.825.76a5.679,5.679,0,0,1,1.584,3.791V2059.7a.365.365,0,1,1-.73,0v-11.146a4.975,4.975,0,0,0-1.351-3.257c-5.362-5.047-16.376-3.9-20.9-.694a5.291,5.291,0,0,0-2.206,4.3v16.4a6.425,6.425,0,0,0,2.49,3.3c4,2.7,10.263,2.929,14.689,1.958a.367.367,0,1,1,.16.716,24.372,24.372,0,0,1-5.171.54Z" transform="translate(0 0.001)" fill="#fff" stroke="#fff" stroke-width="1"/>
    <path id="Tracé_99" data-name="Tracé 99" d="M3417.122,2056.967c-7.231,0-12.892-2.943-12.892-6.7h.73c0,3.287,5.456,5.968,12.161,5.968s12.161-2.673,12.161-5.968h.73C3430.013,2054.024,3424.352,2056.967,3417.122,2056.967Z" transform="translate(-0.027 -2.476)" fill="#fff" stroke="#fff" stroke-width="1"/>
    <path id="Tracé_100" data-name="Tracé 100" d="M3417.088,2064.487c-7.268,0-12.957-2.944-12.957-6.7h.73c0,3.287,5.486,5.967,12.227,5.967s12.228-2.673,12.228-5.967h.73C3430.045,2061.544,3424.355,2064.487,3417.088,2064.487Z" transform="translate(0 -4.504)" fill="#fff" stroke="#fff" stroke-width="1"/>
    <path id="Tracé_101" data-name="Tracé 101" d="M3417.088,2072.543c-7.268,0-12.957-2.944-12.957-6.7a.365.365,0,1,1,.73,0c0,3.287,5.486,5.967,12.227,5.967a20.249,20.249,0,0,0,8.523-1.709.367.367,0,0,1,.314.664,20.974,20.974,0,0,1-8.838,1.782Z" transform="translate(0 -6.577)" fill="#fff" stroke="#fff" stroke-width="1"/>
    <path id="Tracé_102" data-name="Tracé 102" d="M3439.065,2077.129a.362.362,0,0,1-.366-.365v-6.749a.365.365,0,0,1,.731,0v6.749A.362.362,0,0,1,3439.065,2077.129Z" transform="translate(-9.319 -7.701)" fill="#fff" stroke="#fff" stroke-width="1"/>
    <path id="Tracé_103" data-name="Tracé 103" d="M3440.778,2073.053a.337.337,0,0,1-.262-.117l-2.44-2.585-2.439,2.585a.367.367,0,1,1-.533-.5l2.7-2.863a.38.38,0,0,1,.533,0l2.7,2.863a.369.369,0,0,1-.014.519A.375.375,0,0,1,3440.778,2073.053Z" transform="translate(-8.322 -7.65)" fill="#fff" stroke="#fff" stroke-width="1"/>
    <path id="Tracé_104" data-name="Tracé 104" d="M3442.727,2082.053h-11.387v-3.418a.365.365,0,1,1,.73,0v2.688H3442v-2.688a.365.365,0,1,1,.73,0Z" transform="translate(-7.335 -10.025)" fill="#fff" stroke="#fff" stroke-width="1"/>
  </g>
</svg>
