<svg xmlns="http://www.w3.org/2000/svg" width="149.671" height="149.679" viewBox="0 0 149.671 149.679">
  <g id="world1" transform="translate(-3628.3 -1985.8)">
    <circle id="Ellipse_46" data-name="Ellipse 46" cx="51.721" cy="51.721" r="51.721" transform="translate(3651.032 2010.416)" fill="none" stroke="#fff" stroke-linecap="round" stroke-linejoin="round" stroke-width="4"/>
    <line id="Ligne_19" data-name="Ligne 19" y1="103.411" transform="translate(3702.753 2010.416)" fill="none" stroke="#fff" stroke-linecap="round" stroke-linejoin="round" stroke-width="4"/>
    <path id="Tracé_128" data-name="Tracé 128" d="M3709.827,2018.45s-38.123,35.879-13.005,84.965" transform="translate(-14.338 -7.524)" fill="none" stroke="#fff" stroke-linecap="round" stroke-linejoin="round" stroke-width="4"/>
    <path id="Tracé_129" data-name="Tracé 129" d="M3746.248,2038.72c6.206,12.068,21.823,51.353-14.709,87.5" transform="translate(-25.14 -12.582)" fill="none" stroke="#fff" stroke-linecap="round" stroke-linejoin="round" stroke-width="4"/>
    <path id="Tracé_130" data-name="Tracé 130" d="M3671.11,2047.74s39.871,18.964,73.844,4.2" transform="translate(-10.059 -14.833)" fill="none" stroke="#fff" stroke-linecap="round" stroke-linejoin="round" stroke-width="4"/>
    <path id="Tracé_131" data-name="Tracé 131" d="M3683.69,2116.238s42.04-13.478,73.746,5.673" transform="translate(-13.199 -30.778)" fill="none" stroke="#fff" stroke-linecap="round" stroke-linejoin="round" stroke-width="4"/>
    <path id="Tracé_132" data-name="Tracé 132" d="M3648.45,2018.9a72.441,72.441,0,0,1,84.035-26.19" transform="translate(-4.404 0)" fill="none" stroke="#fff" stroke-width="5"/>
    <path id="Tracé_133" data-name="Tracé 133" d="M3638.8,2107.782a72.529,72.529,0,0,1-1.463-63.2" transform="translate(0 -14.045)" fill="none" stroke="#fff" stroke-width="5"/>
    <path id="Tracé_134" data-name="Tracé 134" d="M3752.432,2156.723a72.344,72.344,0,0,1-101.3-12.8" transform="translate(-5.073 -38.836)" fill="none" stroke="#fff" stroke-width="5"/>
    <path id="Tracé_135" data-name="Tracé 135" d="M3778.429,2003.03a72.351,72.351,0,0,1,15.565,109.392" transform="translate(-36.841 -3.676)" fill="none" stroke="#fff" stroke-width="5"/>
    <circle id="Ellipse_47" data-name="Ellipse 47" cx="6.754" cy="6.754" r="6.754" transform="translate(3728.08 1989.051)" fill="none" stroke="#fff" stroke-width="4"/>
    <circle id="Ellipse_48" data-name="Ellipse 48" cx="6.754" cy="6.754" r="6.754" transform="translate(3633.322 2017.612)" fill="none" stroke="#fff" stroke-width="4"/>
    <circle id="Ellipse_49" data-name="Ellipse 49" cx="6.754" cy="6.754" r="6.754" transform="translate(3635.235 2092.935)" fill="none" stroke="#fff" stroke-width="4"/>
    <circle id="Ellipse_50" data-name="Ellipse 50" cx="6.754" cy="6.754" r="6.754" transform="translate(3746.091 2107.193)" fill="none" stroke="#fff" stroke-width="4"/>
    <circle id="Ellipse_51" data-name="Ellipse 51" cx="6.754" cy="6.754" r="6.754" transform="translate(3739.337 2057.476)" fill="none" stroke="#fff" stroke-width="4"/>
    <path id="Tracé_136" data-name="Tracé 136" d="M3643.139,2113.763s-2.762-15.511,28.66-43.113" transform="translate(-3.063 -20.551)" fill="none" stroke="#fff" stroke-linecap="round" stroke-width="4"/>
    <path id="Tracé_137" data-name="Tracé 137" d="M3652.159,2131.856s32.119,14.971,94.316-36.247" transform="translate(-5.33 -26.78)" fill="none" stroke="#fff" stroke-linecap="round" stroke-width="4"/>
    <path id="Tracé_138" data-name="Tracé 138" d="M3790.26,2071.275s16.21-15.212,15.6-34.145" transform="translate(-39.794 -12.186)" fill="none" stroke="#fff" stroke-linecap="round" stroke-width="4"/>
    <path id="Tracé_139" data-name="Tracé 139" d="M3753.319,2027.5s20.72-9.3,38.078-1.914" transform="translate(-30.575 -8.593)" fill="none" stroke="#fff" stroke-linecap="round" stroke-width="4"/>
  </g>
</svg>
