<svg xmlns="http://www.w3.org/2000/svg" width="38.138" height="30.751" viewBox="0 0 38.138 30.751">
  <g id="world_mini" data-name="world mini" transform="translate(-3635.96 -2016.852)">
    <circle id="Ellipse_63" data-name="Ellipse 63" cx="14.417" cy="14.417" r="14.417" transform="translate(3641.113 2017.77)" fill="none" stroke="#fff" stroke-linecap="round" stroke-linejoin="round" stroke-width="1.5"/>
    <line id="Ligne_21" data-name="Ligne 21" y1="28.825" transform="translate(3655.53 2017.77)" fill="none" stroke="#fff" stroke-linecap="round" stroke-linejoin="round" stroke-width="1.5"/>
    <path id="Tracé_153" data-name="Tracé 153" d="M3694.27,2018.45s-10.626,10-3.625,23.683" transform="translate(-40.765 -0.538)" fill="none" stroke="#fff" stroke-linecap="round" stroke-linejoin="round" stroke-width="1.5"/>
    <path id="Tracé_154" data-name="Tracé 154" d="M3735.64,2038.72c1.73,3.364,6.083,14.314-4.1,24.39" transform="translate(-74.994 -16.568)" fill="none" stroke="#fff" stroke-linecap="round" stroke-linejoin="round" stroke-width="1.5"/>
    <path id="Tracé_155" data-name="Tracé 155" d="M3671.11,2047.74s11.114,5.286,20.583,1.172" transform="translate(-27.205 -23.701)" fill="none" stroke="#fff" stroke-linecap="round" stroke-linejoin="round" stroke-width="1.5"/>
    <path id="Tracé_156" data-name="Tracé 156" d="M3683.69,2112.916s11.718-3.757,20.556,1.582" transform="translate(-37.153 -74.228)" fill="none" stroke="#fff" stroke-linecap="round" stroke-linejoin="round" stroke-width="1.5"/>
    <circle id="Ellipse_66" data-name="Ellipse 66" cx="1.883" cy="1.883" r="1.883" transform="translate(3636.71 2040.771)" fill="none" stroke="#fff" stroke-width="1.5"/>
    <circle id="Ellipse_68" data-name="Ellipse 68" cx="1.883" cy="1.883" r="1.883" transform="translate(3665.727 2030.888)" fill="none" stroke="#fff" stroke-width="1.5"/>
    <path id="Tracé_161" data-name="Tracé 161" d="M3643.1,2082.667s-.77-4.324,7.988-12.017" transform="translate(-5.036 -41.819)" fill="none" stroke="#fff" stroke-linecap="round" stroke-width="1.5"/>
    <path id="Tracé_162" data-name="Tracé 162" d="M3652.16,2105.713s8.953,4.173,26.29-10.1" transform="translate(-12.218 -61.557)" fill="none" stroke="#fff" stroke-linecap="round" stroke-width="1.5"/>
    <path id="Tracé_163" data-name="Tracé 163" d="M3761.031,2035.345s5.384-4.679,4.349-9.518-10.24-2.565-12.081-1.659" transform="translate(-92.202 -4.007)" fill="none" stroke="#fff" stroke-linecap="round" stroke-width="1.5"/>
  </g>
</svg>
